<?xml version="1.0" encoding="UTF-8"?>
<svg version="1.1" xmlns="http://www.w3.org/2000/svg" width="1024" height="1024">
<path d="M0 0 C2.1269132 0.00564374 4.25381843 0.00846195 6.3807373 0.0110817 C26.60242912 0.04729448 46.54484214 0.43815241 66.59460449 3.31805801 C67.86819824 3.48966446 69.14179199 3.6612709 70.45397949 3.83807755 C149.21057376 14.48099076 226.30844872 42.60209282 291.59460449 88.31805801 C292.15824707 88.71122208 292.72188965 89.10438614 293.3026123 89.50946426 C297.43452011 92.39878034 301.52350345 95.34381704 305.59460449 98.31805801 C306.23542969 98.78469864 306.87625488 99.25133926 307.53649902 99.73212051 C316.11506398 106.00002438 324.35646236 112.52628341 332.35632324 119.51727676 C335.24478792 122.03732788 338.21729523 124.43425023 341.21960449 126.81805801 C345.90183391 130.6107328 350.12105318 134.72534394 354.32995605 139.02386856 C356.94953409 141.69493602 359.59037312 144.24245353 362.46960449 146.63055801 C368.43133748 151.71228467 373.58256707 157.67412089 378.86804199 163.43866348 C380.44653885 165.15688588 382.03389808 166.86622108 383.62585449 168.57196426 C389.55606093 174.94486107 395.17478001 181.50640785 400.59460449 188.31805801 C401.2123877 189.08641983 401.2123877 189.08641983 401.84265137 189.87030411 C435.43324024 231.65649154 462.09671284 278.40317342 481.59460449 328.31805801 C482.00162598 329.35720352 482.40864746 330.39634903 482.82800293 331.4669838 C496.2652838 366.19779316 505.07023428 402.57047832 510.40710449 439.38055801 C510.50665436 440.05989395 510.60620422 440.73922989 510.70877075 441.43915176 C513.98869105 464.15060241 514.97447213 486.79297052 514.91266251 509.72345352 C514.90701876 511.85036673 514.90420056 513.97727195 514.90158081 516.10419083 C514.86536802 536.32588264 514.4745101 556.26829566 511.59460449 576.31805801 C511.42299805 577.59165176 511.2513916 578.86524551 511.07458496 580.17743301 C500.43167175 658.93402728 472.31056969 736.03190224 426.59460449 801.31805801 C426.20144043 801.88170059 425.80827637 802.44534317 425.40319824 803.02606583 C422.51388216 807.15797363 419.56884547 811.24695697 416.59460449 815.31805801 C416.12796387 815.95888321 415.66132324 816.5997084 415.18054199 817.25995255 C408.91263812 825.8385175 402.3863791 834.07991588 395.39538574 842.07977676 C392.87533462 844.96824145 390.47841227 847.94074875 388.09460449 850.94305801 C384.30192971 855.62528743 380.18731857 859.8445067 375.88879395 864.05340958 C373.21772648 866.67298761 370.67020898 869.31382664 368.28210449 872.19305801 C363.20037783 878.154791 357.23854162 883.30602059 351.47399902 888.59149551 C349.75577663 890.16999237 348.04644143 891.75735161 346.34069824 893.34930801 C339.96780143 899.27951445 333.40625465 904.89823353 326.59460449 910.31805801 C326.08236328 910.72991348 325.57012207 911.14176895 325.0423584 911.56610489 C283.25617097 945.15669376 236.50948908 971.82016636 186.59460449 991.31805801 C185.55545898 991.7250795 184.51631348 992.13210098 183.44567871 992.55145645 C148.71486934 1005.98873733 112.34218419 1014.7936878 75.53210449 1020.13055801 C74.85276855 1020.23010788 74.17343262 1020.32965775 73.47351074 1020.43222427 C50.7620601 1023.71214457 28.11969199 1024.69792565 5.18920898 1024.63611603 C3.06229578 1024.63047228 0.93539056 1024.62765408 -1.19152832 1024.62503433 C-21.41322013 1024.58882155 -41.35563316 1024.19796362 -61.40539551 1021.31805801 C-63.31578613 1021.06064835 -63.31578613 1021.06064835 -65.26477051 1020.79803848 C-144.02136478 1010.15512527 -221.11923973 982.03402321 -286.40539551 936.31805801 C-286.96903809 935.92489395 -287.53268066 935.53172989 -288.11340332 935.12665176 C-292.24531112 932.23733568 -296.33429446 929.29229899 -300.40539551 926.31805801 C-301.0462207 925.85141739 -301.6870459 925.38477676 -302.34729004 924.90399551 C-310.92585499 918.63609164 -319.16725338 912.10983262 -327.16711426 905.11883926 C-330.05557894 902.59878815 -333.02808625 900.2018658 -336.03039551 897.81805801 C-340.71262493 894.02538323 -344.9318442 889.91077209 -349.14074707 885.61224747 C-351.7603251 882.94118 -354.40116414 880.3936625 -357.28039551 878.00555801 C-363.24212849 872.92383135 -368.39335808 866.96199514 -373.67883301 861.19745255 C-375.25732986 859.47923015 -376.8446891 857.76989495 -378.43664551 856.06415176 C-384.36685194 849.69125496 -389.98557102 843.12970818 -395.40539551 836.31805801 C-395.81725098 835.8058168 -396.22910645 835.29357559 -396.65344238 834.76581192 C-430.24403125 792.97962449 -456.90750386 746.23294261 -476.40539551 696.31805801 C-476.81241699 695.27891251 -477.21943848 694.239767 -477.63879395 693.16913223 C-491.07607482 658.43832287 -499.8810253 622.06563771 -505.21789551 585.25555801 C-505.31744537 584.57622208 -505.41699524 583.89688614 -505.51956177 583.19696426 C-508.79948207 560.48551362 -509.78526314 537.84314551 -509.72345352 514.91266251 C-509.71780978 512.7857493 -509.71499157 510.65884408 -509.71237183 508.5319252 C-509.67615904 488.31023339 -509.28530111 468.36782037 -506.40539551 448.31805801 C-506.23378906 447.04446426 -506.06218262 445.77087051 -505.88537598 444.45868301 C-495.24246277 365.70208874 -467.1213607 288.60421379 -421.40539551 223.31805801 C-421.01223145 222.75441544 -420.61906738 222.19077286 -420.21398926 221.6100502 C-417.32467318 217.4781424 -414.37963649 213.38915906 -411.40539551 209.31805801 C-410.93875488 208.67723282 -410.47211426 208.03640762 -409.99133301 207.37616348 C-403.72342914 198.79759853 -397.19717011 190.55620014 -390.20617676 182.55633926 C-387.68612564 179.66787458 -385.28920329 176.69536728 -382.90539551 173.69305801 C-379.11272072 169.0108286 -374.99810958 164.79160933 -370.69958496 160.58270645 C-368.0285175 157.96312842 -365.48099999 155.32228938 -363.09289551 152.44305801 C-358.01116885 146.48132503 -352.04933263 141.33009544 -346.28479004 136.04462051 C-344.56656764 134.46612366 -342.85723244 132.87876442 -341.15148926 131.28680801 C-334.77859245 125.35660158 -328.21704567 119.7378825 -321.40539551 114.31805801 C-320.8931543 113.90620255 -320.38091309 113.49434708 -319.85314941 113.07001114 C-278.06696198 79.47942227 -231.3202801 52.81594967 -181.40539551 33.31805801 C-180.36625 32.91103653 -179.32710449 32.50401505 -178.25646973 32.08465958 C-143.52566036 18.6473787 -107.1529752 9.84242823 -70.34289551 4.50555801 C-69.66355957 4.40600815 -68.98422363 4.30645828 -68.28430176 4.20389175 C-45.57285111 0.92397146 -22.930483 -0.06180962 0 0 Z " fill="#000000" transform="translate(509.4053955078125,-0.3180580139160156)"/>
<path d="M0 0 C2.54639759 -0.00417572 5.09279332 -0.00965455 7.63918561 -0.01631981 C13.16284131 -0.02775015 18.68637912 -0.02991499 24.21004105 -0.02376938 C32.42381396 -0.01465527 40.63750868 -0.0227286 48.85127561 -0.03406062 C63.52210465 -0.05370264 78.1928983 -0.0560799 92.86373735 -0.05086542 C105.69942781 -0.04630549 118.53510428 -0.0469109 131.3707943 -0.05270576 C133.09357346 -0.05346263 134.81635262 -0.05421861 136.53913179 -0.05497371 C139.13525555 -0.05611891 141.73137931 -0.05726879 144.32750306 -0.05843295 C168.45409396 -0.06913356 192.58068021 -0.07386739 216.70727253 -0.06596279 C218.07074548 -0.06551703 218.07074548 -0.06551703 219.46176333 -0.06506227 C226.84307384 -0.0626134 234.22438428 -0.06000178 241.60569473 -0.05737813 C270.41441329 -0.04726975 299.22307361 -0.0556441 328.03178406 -0.07887268 C360.40669347 -0.10493454 392.78156782 -0.11779666 425.15648812 -0.11068493 C428.60694165 -0.10996887 432.05739519 -0.10929448 435.50784874 -0.10864449 C436.78221395 -0.10838977 436.78221395 -0.10838977 438.08232391 -0.10812991 C450.91342975 -0.1058258 463.74450304 -0.11380896 476.57560158 -0.12693596 C491.16077175 -0.14183097 505.74586554 -0.14271173 520.33103404 -0.12486505 C528.4945415 -0.1152876 536.65787091 -0.11676642 544.82136656 -0.13409974 C550.91200687 -0.1457953 557.00242609 -0.13664538 563.09306075 -0.11927737 C565.56049589 -0.1154941 568.02795244 -0.11850566 570.49536864 -0.12888902 C573.84271383 -0.141977 577.18910859 -0.13054764 580.53641224 -0.1128912 C581.4999569 -0.12254171 582.46350157 -0.13219222 583.45624456 -0.14213517 C590.61111383 -0.06435709 595.91971679 1.59658623 601.3469696 6.3525238 C601.88579773 7.00350037 602.42462585 7.65447693 602.9797821 8.32518005 C603.81122742 9.29777771 603.81122742 9.29777771 604.6594696 10.2900238 C609.82596477 17.78842354 608.87167869 27.64734518 607.71025085 36.34080505 C606.10786326 42.91576317 602.47546383 48.27362579 597.1047821 52.38768005 C590.22634232 55.8842046 584.19473981 56.96766081 576.54743195 56.88990211 C575.01761447 56.89845895 575.01761447 56.89845895 573.4568916 56.90718865 C570.04740784 56.92141973 566.6386474 56.90726107 563.22917175 56.89320374 C560.75690905 56.89764794 558.28464899 56.90385062 555.81239462 56.91165864 C550.44133578 56.92462675 545.07048735 56.92525998 539.6994381 56.91496086 C531.71245471 56.89972619 523.7256084 56.90749366 515.73862614 56.91999994 C502.29932783 56.9404353 488.86008531 56.94262215 475.42077637 56.93466568 C462.10995773 56.92690357 448.79918773 56.92827837 435.4883728 56.94149399 C434.66008973 56.94231513 433.83180665 56.94313627 432.97842408 56.94398229 C428.7716344 56.94821392 424.56484493 56.95262967 420.35805553 56.95713024 C390.56513539 56.98881018 360.77222972 57.00351794 330.97929382 57.00682068 C329.17818258 57.00702636 327.37707134 57.00723241 325.5759601 57.00743882 C324.23736216 57.00759114 324.23736216 57.00759114 322.87172183 57.00774654 C318.35694033 57.00826136 313.84215882 57.00878546 309.32737732 57.00932312 C307.98451372 57.00948023 307.98451372 57.00948023 306.61452157 57.0096405 C285.81976947 57.0121601 265.02502037 57.01980824 244.23027039 57.02928162 C242.89407999 57.02988435 242.89407999 57.02988435 241.53089585 57.03049927 C221.19181615 57.03971834 200.85273961 57.05130952 180.51366425 57.06755638 C179.65875846 57.06823684 178.80385267 57.0689173 177.92304065 57.06961837 C170.23252979 57.07576016 162.54201903 57.08199656 154.85150868 57.08873527 C135.67367987 57.10553252 116.49587821 57.11644232 97.31804152 57.11281815 C83.95500725 57.1103124 70.59198936 57.11419715 57.22895896 57.12489988 C49.29033535 57.13099701 41.35175748 57.13137332 33.41313501 57.12369971 C27.48624606 57.11856557 21.55939551 57.12376884 15.63251048 57.13296358 C13.23426288 57.13503872 10.83600945 57.13371717 8.43776625 57.12867399 C5.17913733 57.12229134 1.92075003 57.12820141 -1.33786774 57.13714027 C-2.7356792 57.12995067 -2.7356792 57.12995067 -4.16172928 57.12261581 C-14.19944154 57.17863675 -22.45970513 58.85646375 -30.8952179 64.38768005 C-32.4111554 65.37768005 -32.4111554 65.37768005 -33.9577179 66.38768005 C-41.35904253 72.91826062 -46.30631931 83.22281833 -47.10603333 92.95257568 C-47.22022552 95.85891209 -47.27597322 98.76054885 -47.3092804 101.66893005 C-47.32864655 102.72302063 -47.3480127 103.77711121 -47.3679657 104.86314392 C-47.42737954 108.20457562 -47.47399351 111.54604249 -47.5202179 114.88768005 C-47.55843284 117.16373611 -47.59748658 119.43977824 -47.6374054 121.71580505 C-47.73304936 127.27297247 -47.81820684 132.83022485 -47.8952179 138.38768005 C-46.42844235 138.38540173 -46.42844235 138.38540173 -44.93203497 138.38307738 C13.04612303 138.29337581 71.02427998 138.22490842 129.00249252 138.18341874 C135.96676495 138.17842962 142.93103724 138.17324337 149.89530945 138.16795349 C150.93482401 138.16716894 150.93482401 138.16716894 151.99533886 138.16636853 C174.4368654 138.14933889 196.87835151 138.11930544 219.31985358 138.08249117 C243.04624958 138.04364001 266.77261431 138.01968539 290.49904203 138.01132607 C304.70524484 138.0058425 318.91133157 137.98853401 333.11749864 137.95601419 C342.8642496 137.9348415 352.6109407 137.92848627 362.35771298 137.93367454 C367.97786424 137.936232 373.59781287 137.93236047 379.21792793 137.91085815 C384.37168333 137.89128489 389.5251013 137.89047961 394.67887276 137.90408447 C396.53514122 137.90576407 398.39143138 137.90078172 400.2476576 137.88814732 C428.89358423 137.70463828 453.07614456 147.8527543 473.7922821 167.76268005 C478.177878 172.27159675 481.73326435 177.08846581 485.1047821 182.38768005 C486.0019696 183.77793396 486.0019696 183.77793396 486.9172821 185.1962738 C491.4748062 192.5924282 494.62300064 200.06962131 497.1047821 208.38768005 C497.42575867 209.43310974 497.74673523 210.47853943 498.07743835 211.5556488 C502.7125695 229.94526215 502.48872271 252.43482654 496.1047821 270.38768005 C495.85808777 271.09666443 495.61139343 271.8056488 495.35722351 272.53611755 C491.84490215 282.36803003 487.40579084 291.00649185 481.1047821 299.38768005 C480.44349304 300.27068787 479.78220398 301.15369568 479.10087585 302.0634613 C472.12967304 311.05372091 464.69021742 318.23958743 455.1047821 324.38768005 C454.19986023 324.97549255 453.29493835 325.56330505 452.3625946 326.16893005 C432.38718377 338.51146033 411.70058418 340.53905299 388.65699768 340.53485107 C387.00399729 340.53815621 385.3509977 340.54188313 383.69799912 340.54599255 C379.17959672 340.55594529 374.6612076 340.55971835 370.1427958 340.56238186 C365.26069346 340.56630454 360.37860144 340.5758808 355.49650574 340.58459473 C343.72490611 340.60429459 331.9533057 340.61441298 320.18169373 340.62332252 C314.63405406 340.6277124 309.08641533 340.63307704 303.5387764 340.63831139 C285.09487799 340.6553103 266.65098015 340.66980705 248.20707512 340.67706013 C243.42834853 340.67896988 238.64962195 340.68089024 233.87089539 340.68284607 C232.68323079 340.68332981 231.49556619 340.68381355 230.27191176 340.68431195 C211.00841268 340.69262241 191.74497549 340.71798244 172.48150347 340.75042675 C152.69346338 340.78348267 132.90545479 340.8015072 113.11738694 340.80470437 C102.01105344 340.80686983 90.90481045 340.815625 79.79850388 340.84116554 C70.34688337 340.86285169 60.8953754 340.87093287 51.44373284 340.86119876 C46.622319 340.85664927 41.80113749 340.8585785 36.9797554 340.87796021 C32.56448151 340.8955564 28.14961006 340.89462306 23.7343321 340.87906291 C22.13894789 340.87668158 20.54353607 340.88103762 18.94819413 340.89289156 C9.0780886 340.96167622 1.08253133 340.59111273 -6.7077179 334.01268005 C-12.92622897 326.55046676 -14.09396181 321.5303579 -14.1452179 312.13768005 C-14.1761554 310.74355896 -14.1761554 310.74355896 -14.2077179 309.3212738 C-14.25319661 301.28291082 -12.67729857 295.33037408 -6.8952179 289.38768005 C-0.78332868 285.05538627 4.60129199 284.26366194 11.94906712 284.25739479 C12.96788498 284.25447965 12.96788498 284.25447965 14.00728503 284.25150561 C16.28781392 284.24618283 18.56828225 284.24794801 20.84881592 284.24964905 C22.49862452 284.2472308 24.14843252 284.24436848 25.79823965 284.24109972 C30.33580971 284.23334453 34.87336465 284.23172719 39.41094053 284.23104858 C44.30342976 284.22920918 49.19591013 284.22160239 54.08839417 284.21456909 C62.56899976 284.20304082 71.04960336 284.19479778 79.53021431 284.18844986 C92.93809444 284.17812385 106.34594978 284.15755983 119.7538147 284.1353302 C124.34123699 284.12785034 128.92865938 284.12043661 133.51608181 284.11304283 C134.66257374 284.11119227 135.80906567 284.1093417 136.99029978 284.10743506 C150.0430252 284.08650521 163.09575336 284.06767877 176.14848328 284.04978943 C177.34174457 284.04815125 178.53500586 284.04651306 179.76442658 284.04482524 C199.09414522 284.01854995 218.42386577 283.99990122 237.7535947 283.98319753 C257.60137119 283.96576925 277.44911024 283.93691547 297.29685682 283.89830816 C309.53719197 283.87492427 321.77746608 283.86091503 334.01782375 283.85898052 C342.41005108 283.85686912 350.80221775 283.84392284 359.19441784 283.8225012 C364.03433649 283.81048895 368.87413471 283.80330969 373.71406746 283.80921364 C378.15005497 283.81452785 382.58579729 283.80596937 387.02174395 283.78665726 C388.62138728 283.78210084 390.22105475 283.78252583 391.82069302 283.78860565 C406.42263408 283.83912421 417.94897657 282.41556844 429.1047821 272.38768005 C438.64789191 262.84457025 441.58687973 251.94277717 441.7297821 238.82518005 C441.58801012 225.82802463 438.24580166 215.88680141 429.1047821 206.38768005 C426.55862529 204.17616099 423.9141244 202.24856918 421.1047821 200.38768005 C420.3210321 199.81018005 419.5372821 199.23268005 418.7297821 198.63768005 C409.1807153 194.09050538 397.98607203 195.09670799 387.66664124 195.10920715 C385.78534888 195.10420007 383.90405868 195.09832307 382.02277148 195.09165442 C376.86903938 195.07589034 371.71536185 195.07242572 366.56160855 195.07100582 C360.99798109 195.06730551 355.43438335 195.05214686 349.87077332 195.03839111 C340.23669624 195.01613433 330.60262977 195.00111152 320.96853256 194.99102402 C307.03930621 194.97642875 293.11011677 194.95088951 279.18091209 194.92269273 C256.58083752 194.87724017 233.98075882 194.84060198 211.38066101 194.80955505 C189.42882859 194.77937764 167.47700913 194.74503286 145.52519226 194.70506287 C144.50971308 194.70321636 144.50971308 194.70321636 143.47371916 194.70133255 C136.67497165 194.6889654 129.8762243 194.6765137 123.07747706 194.66400007 C66.08659647 194.55911178 9.09570079 194.46902749 -47.8952179 194.38768005 C-47.8952179 221.77768005 -47.8952179 249.16768005 -47.8952179 277.38768005 C-67.3652179 277.38768005 -86.8352179 277.38768005 -106.8952179 277.38768005 C-106.8952179 249.99768005 -106.8952179 222.60768005 -106.8952179 194.38768005 C-135.62654408 193.60367751 -135.62654408 193.60367751 -159.0045929 206.5322113 C-166.51697136 215.69795511 -169.03769891 224.6595231 -169.05343628 236.39826965 C-169.05837426 237.18743826 -169.06331223 237.97660686 -169.06839985 238.78968966 C-169.08371331 241.42440187 -169.09211873 244.05908983 -169.10054016 246.6938324 C-169.11012352 248.58632112 -169.12013387 250.47880773 -169.13053894 252.37129211 C-169.1575444 257.50299097 -169.17857755 262.63469899 -169.19854093 267.76642942 C-169.22042738 273.13162111 -169.24780306 278.49678472 -169.27459717 283.86195374 C-169.32448809 294.01903796 -169.36944028 304.17613781 -169.41261953 314.33325255 C-169.46202268 325.89788187 -169.5169294 337.46248301 -169.57229912 349.02708507 C-169.68606391 372.81392505 -169.79218842 396.60079098 -169.8952179 420.38768005 C-189.3652179 420.38768005 -208.8352179 420.38768005 -228.8952179 420.38768005 C-228.94045225 395.7607031 -228.97725792 371.13376004 -228.99884224 346.50675201 C-229.00913282 335.07072456 -229.02315054 323.63472485 -229.0460968 312.19871521 C-229.06609881 302.22527341 -229.07895043 292.25185171 -229.08339489 282.27839041 C-229.08599077 277.00282901 -229.09204553 271.72732511 -229.10667801 266.45178223 C-229.12036979 261.47452654 -229.12441738 256.49735139 -229.12143326 251.52007866 C-229.12197828 249.70460508 -229.12588603 247.88912849 -229.13362885 246.07367134 C-229.26264703 214.22965718 -222.23630899 187.8017731 -200.1452179 164.20018005 C-186.69559185 151.42438297 -170.80398689 143.69133772 -152.8952179 139.38768005 C-152.20742249 139.20970886 -151.51962708 139.03173767 -150.81098938 138.84837341 C-146.60917228 138.1844842 -142.46643897 138.26547438 -138.21943665 138.2900238 C-137.2942775 138.29143875 -136.36911835 138.2928537 -135.41592407 138.29431152 C-132.47148863 138.29989291 -129.52713022 138.312442 -126.5827179 138.32518005 C-124.58206795 138.33019746 -122.58141682 138.33475995 -120.58076477 138.33885193 C-115.68555296 138.34985624 -110.79039847 138.36710808 -105.8952179 138.38768005 C-105.89965912 137.77983673 -105.90410034 137.17199341 -105.90867615 136.54573059 C-105.95332182 130.15290201 -105.98325331 123.76011854 -106.00508118 117.36717224 C-106.01506714 114.98922422 -106.02866059 112.61128824 -106.0460968 110.23338318 C-106.28584724 76.66832227 -100.5443032 50.09365584 -76.68037415 25.1103363 C-72.73716584 21.25561514 -68.58533388 18.26135172 -63.8952179 15.38768005 C-62.50883118 14.49629333 -62.50883118 14.49629333 -61.09443665 13.5868988 C-53.75471563 9.04696541 -46.18667114 5.76747832 -37.8952179 3.38768005 C-36.73178044 3.01444521 -36.73178044 3.01444521 -35.5448392 2.63367027 C-23.88744552 -0.62380281 -12.00355676 -0.03199835 0 0 Z " fill="#FEFEFD" transform="translate(339.8952178955078,319.61231994628906)"/>
</svg>
